<svg xmlns="http://www.w3.org/2000/svg" xmlns:xlink="http://www.w3.org/1999/xlink" viewBox="0 0 100 180">
	<style>
    .BubbleWrap {
      mix-blend-mode: color-dodge;
    }
  </style>
  
  <defs>
		<rect id="SVGID_1_" x="16.7" y="0" width="66.5" height="164.2"/>
	</defs>
  
	<clipPath id="SVGID_2_">
		<use xlink:href="#SVGID_1_"  overflow="visible"/>
	</clipPath>
	  
  <!-- Beaker -->
	<g fill="#035B7F">
		<path d="M94.9 64.5H5.1c-2.8 0-5.1 2.3-5.1 5.1 0 2.5 1.8 4.5 4.1 5v91.9c0 7.1 5.8 12.9 12.9 12.9h66c7.1 0 12.9-5.8 12.9-12.9v-92c2.3-.4 4.1-2.5 4.1-5 0-2.7-2.3-5-5.1-5zm-6.2 101c0 2.3-1.9 4.2-4.2 4.2h-69c-2.3 0-4.2-1.9-4.2-4.2v-82c0-2.3 1.9-4.2 4.2-4.2h69c2.3 0 4.2 1.9 4.2 4.2v82z"/>
		<path d="M79.9 104.8H20.1c-1.9 0-3.4 1.5-3.4 3.4v9.9h16c2 0 3.6 1.6 3.6 3.6s-1.6 3.6-3.6 3.6h-16v7.9h16c2 0 3.6 1.6 3.6 3.6s-1.6 3.6-3.6 3.6h-16v7.9h16c2 0 3.6 1.6 3.6 3.6s-1.6 3.6-3.6 3.6h-16v5.5c0 1.9 1.5 3.4 3.4 3.4h59.8c1.9 0 3.4-1.5 3.4-3.4v-52.6c0-2.1-1.5-3.6-3.4-3.6z"/>
	</g>
  
  <!-- Bubbles -->
  <g class="BubbleWrap" clip-path="url(#SVGID_2_)">
    <g>
      <path fill="#035B7F" d="M4.5,0.1C2.4-0.3,0.4,1.1,0.1,3.2c-0.4,2.1,1.1,4.1,3.1,4.4C5.3,8,7.3,6.6,7.6,4.5C8,2.4,6.6,0.4,4.5,0.1 L4.5,0.1z M1.4,3.4c0.2-1.4,1.5-2.3,2.9-2.1c1.4,0.2,2.3,1.5,2.1,2.9l0,0l0,0C6.1,5.6,4.8,6.5,3.4,6.3C2.1,6.1,1.1,4.8,1.4,3.4 L1.4,3.4L1.4,3.4z"/>
      <path fill="#035B7F" d="M4.8,4c0,0.1,0,0.1,0,0.2l0.9,0.2c0-0.1,0-0.1,0-0.2C5.9,3,5.2,2,4.1,1.8c0,0,0,0,0,0C4.7,2.3,5,3.1,4.8,4z"/>
      <animateTransform
        attributeName="transform"
        type="translate"
        dur="1.5s"
        repeatCount="indefinite"
        values="17 170; 17 110; 17 0"
        keyTimes="0; 0.4; 1" />
    </g>

    <g>
      <path fill="#035B7F" d="M4.5,0.1C2.4-0.3,0.4,1.1,0.1,3.2c-0.4,2.1,1.1,4.1,3.1,4.4C5.3,8,7.3,6.6,7.6,4.5C8,2.4,6.6,0.4,4.5,0.1 L4.5,0.1z M1.4,3.4c0.2-1.4,1.5-2.3,2.9-2.1c1.4,0.2,2.3,1.5,2.1,2.9l0,0l0,0C6.1,5.6,4.8,6.5,3.4,6.3C2.1,6.1,1.1,4.8,1.4,3.4 L1.4,3.4L1.4,3.4z"/>
      <path fill="#035B7F" d="M4.8,4c0,0.1,0,0.1,0,0.2l0.9,0.2c0-0.1,0-0.1,0-0.2C5.9,3,5.2,2,4.1,1.8c0,0,0,0,0,0C4.7,2.3,5,3.1,4.8,4z"/>
      <animateTransform
        attributeName="transform"
        type="translate"
        dur="1.25s"
        begin="1s"
        repeatCount="indefinite"
        values="28 170; 28 110; 28 10"
        keyTimes="0; 0.4; 1" />
    </g>

    <g>
      <path fill="#035B7F" d="M4.5,0.1C2.4-0.3,0.4,1.1,0.1,3.2c-0.4,2.1,1.1,4.1,3.1,4.4C5.3,8,7.3,6.6,7.6,4.5C8,2.4,6.6,0.4,4.5,0.1 L4.5,0.1z M1.4,3.4c0.2-1.4,1.5-2.3,2.9-2.1c1.4,0.2,2.3,1.5,2.1,2.9l0,0l0,0C6.1,5.6,4.8,6.5,3.4,6.3C2.1,6.1,1.1,4.8,1.4,3.4 L1.4,3.4L1.4,3.4z"/>
      <path fill="#035B7F" d="M4.8,4c0,0.1,0,0.1,0,0.2l0.9,0.2c0-0.1,0-0.1,0-0.2C5.9,3,5.2,2,4.1,1.8c0,0,0,0,0,0C4.7,2.3,5,3.1,4.8,4z"/>
      <animateTransform
        attributeName="transform"
        type="translate"
        dur="1s"
        repeatCount="indefinite"
        values="42 170; 42 90; 42 15"
        keyTimes="0; 0.4; 1" />
    </g>

    <g>
      <path fill="#035B7F" d="M4.5,0.1C2.4-0.3,0.4,1.1,0.1,3.2c-0.4,2.1,1.1,4.1,3.1,4.4C5.3,8,7.3,6.6,7.6,4.5C8,2.4,6.6,0.4,4.5,0.1 L4.5,0.1z M1.4,3.4c0.2-1.4,1.5-2.3,2.9-2.1c1.4,0.2,2.3,1.5,2.1,2.9l0,0l0,0C6.1,5.6,4.8,6.5,3.4,6.3C2.1,6.1,1.1,4.8,1.4,3.4 L1.4,3.4L1.4,3.4z"/>
      <path fill="#035B7F" d="M4.8,4c0,0.1,0,0.1,0,0.2l0.9,0.2c0-0.1,0-0.1,0-0.2C5.9,3,5.2,2,4.1,1.8c0,0,0,0,0,0C4.7,2.3,5,3.1,4.8,4z"/>
      <animateTransform
        attributeName="transform"
        type="translate"
        dur="1.4s"
        begin="1.5s"
        repeatCount="indefinite"
        values="59 170; 59 70; 59 3"
        keyTimes="0; 0.4; 1" />
    </g>

    <g>
      <path fill="#035B7F" d="M4.5,0.1C2.4-0.3,0.4,1.1,0.1,3.2c-0.4,2.1,1.1,4.1,3.1,4.4C5.3,8,7.3,6.6,7.6,4.5C8,2.4,6.6,0.4,4.5,0.1 L4.5,0.1z M1.4,3.4c0.2-1.4,1.5-2.3,2.9-2.1c1.4,0.2,2.3,1.5,2.1,2.9l0,0l0,0C6.1,5.6,4.8,6.5,3.4,6.3C2.1,6.1,1.1,4.8,1.4,3.4 L1.4,3.4L1.4,3.4z"/>
      <path fill="#035B7F" d="M4.8,4c0,0.1,0,0.1,0,0.2l0.9,0.2c0-0.1,0-0.1,0-0.2C5.9,3,5.2,2,4.1,1.8c0,0,0,0,0,0C4.7,2.3,5,3.1,4.8,4z"/>
      <animateTransform
        attributeName="transform"
        type="translate"
        dur="1s"
        begin="0.5s"
        repeatCount="indefinite"
        values="74 170; 74 100; 74 3"
        keyTimes="0; 0.4; 1" />
    </g>

    <g>
      <path fill="#035B7F" d="M4.5,0.1C2.4-0.3,0.4,1.1,0.1,3.2c-0.4,2.1,1.1,4.1,3.1,4.4C5.3,8,7.3,6.6,7.6,4.5C8,2.4,6.6,0.4,4.5,0.1 L4.5,0.1z M1.4,3.4c0.2-1.4,1.5-2.3,2.9-2.1c1.4,0.2,2.3,1.5,2.1,2.9l0,0l0,0C6.1,5.6,4.8,6.5,3.4,6.3C2.1,6.1,1.1,4.8,1.4,3.4 L1.4,3.4L1.4,3.4z"/>
      <path fill="#035B7F" d="M4.8,4c0,0.1,0,0.1,0,0.2l0.9,0.2c0-0.1,0-0.1,0-0.2C5.9,3,5.2,2,4.1,1.8c0,0,0,0,0,0C4.7,2.3,5,3.1,4.8,4z"/>
      <animateTransform
        attributeName="transform"
        type="translate"
        dur="1s"
        begin="2s"
        repeatCount="indefinite"
        values="54 170; 54 100; 54 34"
        keyTimes="0; 0.4; 1" />
    </g>

    <g>
      <path fill="#035B7F" d="M4.5,0.1C2.4-0.3,0.4,1.1,0.1,3.2c-0.4,2.1,1.1,4.1,3.1,4.4C5.3,8,7.3,6.6,7.6,4.5C8,2.4,6.6,0.4,4.5,0.1 L4.5,0.1z M1.4,3.4c0.2-1.4,1.5-2.3,2.9-2.1c1.4,0.2,2.3,1.5,2.1,2.9l0,0l0,0C6.1,5.6,4.8,6.5,3.4,6.3C2.1,6.1,1.1,4.8,1.4,3.4 L1.4,3.4L1.4,3.4z"/>
      <path fill="#035B7F" d="M4.8,4c0,0.1,0,0.1,0,0.2l0.9,0.2c0-0.1,0-0.1,0-0.2C5.9,3,5.2,2,4.1,1.8c0,0,0,0,0,0C4.7,2.3,5,3.1,4.8,4z"/>
      <animateTransform
        attributeName="transform"
        type="translate"
        dur="2s"
        repeatCount="indefinite"
        values="36 170; 16 83; 36 24; 16 0"
        keyTimes="0; 0.45; 0.8; 1" />
    </g>

    <g>
      <path fill="#035B7F" d="M4.5,0.1C2.4-0.3,0.4,1.1,0.1,3.2c-0.4,2.1,1.1,4.1,3.1,4.4C5.3,8,7.3,6.6,7.6,4.5C8,2.4,6.6,0.4,4.5,0.1 L4.5,0.1z M1.4,3.4c0.2-1.4,1.5-2.3,2.9-2.1c1.4,0.2,2.3,1.5,2.1,2.9l0,0l0,0C6.1,5.6,4.8,6.5,3.4,6.3C2.1,6.1,1.1,4.8,1.4,3.4 L1.4,3.4L1.4,3.4z"/>
      <path fill="#035B7F" d="M4.8,4c0,0.1,0,0.1,0,0.2l0.9,0.2c0-0.1,0-0.1,0-0.2C5.9,3,5.2,2,4.1,1.8c0,0,0,0,0,0C4.7,2.3,5,3.1,4.8,4z"/>
      <animateTransform
        attributeName="transform"
        type="translate"
        dur="1.2s"
        repeatCount="indefinite"
        values="48 170; 62 83; 48 24; 62 0"
        keyTimes="0; 0.45; 0.8; 1" />
    </g>
  </g>
</svg>