<svg xmlns="http://www.w3.org/2000/svg" viewBox="0 0 390.2 54"><path fill="#606061" d="M75 27L60 0H5.8C2.6 0 0 2.6 0 5.8v42.4C0 51.4 2.6 54 5.8 54H60l15-27z"/><path fill="#BA1F40" d="M73.5 2.8c-1.1-1.7-3-2.8-5-2.8H64l15.2 27L64 54h4.5c2.1 0 4-1.1 5-2.8L87 27 73.5 2.8z"/><g fill="#FFF"><path d="M32 15h4v24h-4zM24 15v17.6L13 15H9v24h4V21.4L24 39h4V15zM55 15v10H44V15h-4v24h4V29h11v10h4V15z"/></g><g><g fill="#BB0E3D"><path d="M107.9 8h2.5v11.2h-2.5l-5.3-7v7H100V8h2.3l5.5 7.2V8zM121.1 19.2l-1-2.4h-4.7l-1 2.4h-2.7L116.5 8h2.4l4.8 11.2h-2.6zm-3.4-7.9l-1.4 3.2h2.8l-1.4-3.2zM128.9 10.2v9h-2.5v-9h-3.2V8h8.8v2.2h-3.1zM133.9 8h2.5v11.2h-2.5V8zM148.6 17.6c-1.1 1.1-2.5 1.7-4.2 1.7s-3-.6-4.2-1.7c-1.1-1.1-1.7-2.5-1.7-4.1 0-1.6.6-3 1.7-4.1 1.1-1.1 2.5-1.7 4.2-1.7s3 .6 4.2 1.7c1.1 1.1 1.7 2.5 1.7 4.1 0 1.7-.6 3-1.7 4.1zm-.9-4.1c0-1-.3-1.8-1-2.6-.6-.7-1.4-1.1-2.4-1.1s-1.7.4-2.4 1.1c-.6.7-1 1.6-1 2.6s.3 1.8 1 2.5c.6.7 1.4 1 2.4 1s1.7-.3 2.4-1c.7-.6 1-1.5 1-2.5zM160.2 8h2.5v11.2h-2.5l-5.3-7v7h-2.5V8h2.3l5.5 7.2V8zM173.4 19.2l-1-2.4h-4.7l-1 2.4H164L168.8 8h2.4l4.8 11.2h-2.6zm-3.3-7.9l-1.4 3.2h2.8l-1.4-3.2zM177.4 19.2V8h2.5v9h4.8v2.2h-7.3zM195.8 17c1.2 0 2.2-.5 3-1.5l1.6 1.6c-1.3 1.4-2.8 2.1-4.5 2.1s-3.1-.5-4.3-1.6c-1.1-1.1-1.7-2.5-1.7-4.1 0-1.7.6-3 1.7-4.2 1.1-1.1 2.5-1.7 4.2-1.7 1.8 0 3.4.7 4.6 2.1l-1.6 1.8c-.8-1-1.8-1.5-2.9-1.5-.9 0-1.7.3-2.4.9-.7.6-1 1.4-1 2.5s.3 1.9.9 2.5c.8.8 1.5 1.1 2.4 1.1zM210.3 19.2l-1-2.4h-4.7l-1 2.4h-2.7L205.7 8h2.4l4.8 11.2h-2.6zm-3.4-7.9l-1.4 3.2h2.8l-1.4-3.2zM222.1 8h2.5v11.2h-2.5l-5.3-7v7h-2.5V8h2.3l5.5 7.2V8zM232.5 17c1.2 0 2.2-.5 3-1.5l1.6 1.6c-1.3 1.4-2.8 2.1-4.5 2.1s-3.1-.5-4.3-1.6c-1.1-1.1-1.7-2.5-1.7-4.1 0-1.7.6-3 1.7-4.2 1.1-1.1 2.5-1.7 4.2-1.7 1.8 0 3.4.7 4.6 2.1l-1.6 1.8c-.8-1-1.8-1.5-2.9-1.5-.9 0-1.7.3-2.4.9-.7.6-1 1.4-1 2.5s.3 1.9.9 2.5c.7.8 1.5 1.1 2.4 1.1zM247.1 8v2.2h-5.6v2.3h5v2.1h-5V17h5.7v2.2H239V8h8.1zM258.6 11.7c0 1.8-.7 2.9-2.1 3.5l2.8 4h-3.1l-2.5-3.6H252v3.6h-2.5V8h4.2c1.7 0 3 .3 3.7.9s1.2 1.5 1.2 2.8zm-3 1.3c.3-.3.5-.7.5-1.3s-.2-1-.5-1.2-.9-.3-1.7-.3H252v3.3h1.8c.9 0 1.5-.2 1.8-.5zM265.4 8h2.5v11.2h-2.5V8zM278.4 8h2.5v11.2h-2.5l-5.3-7v7h-2.5V8h2.3l5.5 7.2V8zM286.3 10.2c-.2.2-.4.5-.4.8s.1.6.4.8c.3.2 1 .4 2 .7s1.9.7 2.5 1.2c.6.5.9 1.3.9 2.3 0 1-.4 1.8-1.1 2.4s-1.7.9-3 .9c-1.8 0-3.4-.7-4.8-2l1.5-1.8c1.2 1.1 2.3 1.6 3.3 1.6.5 0 .8-.1 1.1-.3.3-.2.4-.5.4-.8s-.1-.6-.4-.8-.8-.4-1.6-.6c-1.3-.3-2.3-.7-2.9-1.2s-.9-1.3-.9-2.3.4-1.9 1.1-2.5c.8-.6 1.7-.9 2.9-.9.7 0 1.5.1 2.2.4.7.3 1.4.6 2 1.1l-1.3 1.8c-1-.7-2-1.1-3-1.1-.3 0-.7.1-.9.3zM298.5 10.2v9H296v-9h-3.2V8h8.8v2.2h-3.1zM303.5 8h2.5v11.2h-2.5V8zM313.5 10.2v9H311v-9h-3.2V8h8.8v2.2h-3.1zM321.5 16.3c.4.5 1 .8 1.7.8s1.3-.3 1.7-.8c.4-.5.6-1.2.6-2.1V8h2.5v6.3c0 1.6-.4 2.9-1.3 3.7-.9.9-2 1.3-3.4 1.3s-2.5-.4-3.4-1.3c-.9-.9-1.4-2.1-1.4-3.7V8h2.5v6.2c-.2.9 0 1.6.5 2.1zM335.2 10.2v9h-2.5v-9h-3.2V8h8.8v2.2h-3.1zM348.3 8v2.2h-5.6v2.3h5v2.1h-5V17h5.7v2.2h-8.2V8h8.1z"/></g></g><g><g fill="#606060"><path d="M106.7 43.1c1.6 0 2.9-.6 3.9-1.9l2.1 2.2c-1.7 1.9-3.6 2.8-5.9 2.8-2.3 0-4.1-.7-5.6-2.1-1.5-1.4-2.2-3.2-2.2-5.4s.7-4 2.2-5.4c1.5-1.5 3.3-2.2 5.5-2.2 2.4 0 4.4.9 6 2.8l-2 2.3c-1-1.3-2.3-1.9-3.9-1.9-1.2 0-2.3.4-3.2 1.2-.9.8-1.3 1.9-1.3 3.3s.4 2.5 1.2 3.3 2.1 1 3.2 1zM124.8 44.4c-1.3 1.2-2.8 1.8-4.5 1.8s-3.1-.5-4.3-1.6c-1.1-1.1-1.7-2.5-1.7-4.3s.6-3.2 1.7-4.2 2.5-1.6 4-1.6c1.6 0 2.9.5 4 1.4 1.1.9 1.6 2.2 1.6 3.9v1.7h-8.2c.1.6.4 1.1 1 1.5.5.4 1.2.6 1.8.6 1.1 0 2-.4 2.7-1.1l1.9 1.9zm-3-6.7c-.4-.4-1-.5-1.6-.5-.6 0-1.2.2-1.7.6-.5.4-.8.9-.9 1.5h5c-.1-.7-.3-1.3-.8-1.6zM131.2 39.7V46H128V34.7h3.1V36c1-1 2-1.4 3.2-1.4s2.2.4 3 1.3c.8.8 1.2 2 1.2 3.4V46h-3.2v-6.4c0-1.7-.6-2.6-1.9-2.6-.6 0-1.2.2-1.6.7-.4.5-.6 1.1-.6 2zM145 37v5.1c0 .4.1.8.3 1 .2.2.5.4.8.4.6 0 1.1-.3 1.5-.8l1.2 2.2c-1 .9-2 1.3-3.1 1.3s-2-.4-2.8-1.1c-.7-.7-1.1-1.7-1.1-2.9V37h-1.3v-2.3h1.3v-3.4h3.2v3.4h2.7V37H145zM160.3 44.4c-1.3 1.2-2.8 1.8-4.5 1.8s-3.1-.5-4.3-1.6c-1.1-1.1-1.7-2.5-1.7-4.3s.6-3.2 1.7-4.2 2.5-1.6 4-1.6c1.6 0 2.9.5 4 1.4 1.1.9 1.6 2.2 1.6 3.9v1.7H153c.1.6.4 1.1 1 1.5.5.4 1.2.6 1.8.6 1.1 0 2-.4 2.7-1.1l1.8 1.9zm-3-6.7c-.4-.4-1-.5-1.6-.5-.6 0-1.2.2-1.7.6-.5.4-.8.9-.9 1.5h5c-.1-.7-.4-1.3-.8-1.6zM169.4 37.5c-.9 0-1.6.3-2.1 1s-.7 1.5-.7 2.6V46h-3.1V34.7h3.1v1.5c.4-.5.9-.9 1.5-1.2.6-.3 1.2-.5 1.9-.5v3h-.6zM181.4 34.1v.8h2.7v2.3h-2.7V46h-3.2v-8.9h-1.3v-2.3h1.3v-.7c0-1.2.4-2.2 1.1-2.9.7-.7 1.7-1.1 2.8-1.1 1.1 0 2.1.4 3 1.3l-1.1 2.1c-.5-.5-1-.8-1.5-.8-.3 0-.6.1-.8.3-.2.3-.3.6-.3 1.1zM197.1 40.4c0 1.6-.6 3-1.7 4.1-1.1 1.1-2.6 1.7-4.3 1.7s-3.1-.6-4.3-1.7-1.7-2.5-1.7-4.1c0-1.6.6-3 1.7-4.1 1.1-1.1 2.6-1.7 4.3-1.7s3.1.6 4.3 1.7c1.2 1.1 1.7 2.4 1.7 4.1zm-8.7 0c0 .9.3 1.7.8 2.3.5.6 1.2.9 2 .9s1.5-.3 2-.9.8-1.3.8-2.3c0-.9-.3-1.7-.8-2.3s-1.2-.9-2-.9-1.5.3-2 .9c-.6.6-.8 1.3-.8 2.3zM205.4 37.5c-.9 0-1.6.3-2.1 1s-.7 1.5-.7 2.6V46h-3.1V34.7h3.1v1.5c.4-.5.9-.9 1.5-1.2.6-.3 1.2-.5 1.9-.5v3h-.6zM220.7 43.1c1.6 0 2.9-.6 3.9-1.9l2.1 2.2c-1.7 1.9-3.6 2.8-5.9 2.8-2.3 0-4.1-.7-5.6-2.1-1.5-1.4-2.2-3.2-2.2-5.4s.7-4 2.2-5.4c1.5-1.5 3.3-2.2 5.5-2.2 2.4 0 4.4.9 6 2.8l-2 2.3c-1-1.3-2.3-1.9-3.9-1.9-1.2 0-2.3.4-3.2 1.2-.9.8-1.3 1.9-1.3 3.3s.4 2.5 1.2 3.3 2 1 3.2 1zM238.5 46h-3v-1.4c-.8 1-1.8 1.5-3 1.5s-2.2-.3-3-1c-.8-.7-1.2-1.6-1.2-2.8s.4-2 1.3-2.6c.8-.6 2-.9 3.4-.9h2.4v-.1c0-1.2-.6-1.8-1.9-1.8-.5 0-1.1.1-1.7.3-.6.2-1.1.5-1.5.8l-1.4-2c1.5-1.1 3.2-1.6 5.1-1.6 1.4 0 2.5.3 3.4 1 .9.7 1.3 1.8 1.3 3.3V46zm-3.2-4.3v-.5h-2c-1.3 0-1.9.4-1.9 1.2 0 .4.1.7.5.9.3.2.7.3 1.3.3s1.1-.2 1.5-.5c.4-.4.6-.8.6-1.4zM244.5 39.7V46h-3.1V34.7h3.1V36c1-1 2-1.4 3.2-1.4s2.2.4 3 1.3c.8.8 1.2 2 1.2 3.4V46h-3.2v-6.4c0-1.7-.6-2.6-1.9-2.6-.6 0-1.2.2-1.6.7-.4.5-.7 1.1-.7 2zM260.2 43.4c1 0 2-.5 2.8-1.6l1.9 2.1c-1.5 1.5-3 2.3-4.7 2.3-1.7 0-3.1-.5-4.3-1.6s-1.8-2.5-1.8-4.2c0-1.7.6-3.1 1.8-4.2s2.6-1.6 4.2-1.6c.8 0 1.6.2 2.5.5s1.6.8 2.2 1.5l-1.6 2.1c-.4-.4-.8-.8-1.3-1-.5-.2-1-.4-1.6-.4-.8 0-1.5.3-2.1.8s-.9 1.3-.9 2.2.3 1.7.9 2.2 1.2.9 2 .9zM276.8 44.4c-1.3 1.2-2.8 1.8-4.5 1.8s-3.1-.5-4.3-1.6c-1.1-1.1-1.7-2.5-1.7-4.3s.6-3.2 1.7-4.2 2.5-1.6 4-1.6c1.6 0 2.9.5 4 1.4 1.1.9 1.6 2.2 1.6 3.9v1.7h-8.2c.1.6.4 1.1 1 1.5.5.4 1.2.6 1.8.6 1.1 0 2-.4 2.7-1.1l1.9 1.9zm-3-6.7c-.4-.4-1-.5-1.6-.5-.6 0-1.2.2-1.7.6-.5.4-.8.9-.9 1.5h5c-.1-.7-.4-1.3-.8-1.6zM285.9 37.5c-.9 0-1.6.3-2.1 1s-.7 1.5-.7 2.6V46H280V34.7h3.1v1.5c.4-.5.9-.9 1.5-1.2.6-.3 1.2-.5 1.9-.5v3h-.6zM306.4 36.2c0 2.4-.9 3.9-2.8 4.6l3.7 5.3h-4l-3.3-4.7h-2.3V46h-3.3V31.3h5.6c2.3 0 3.9.4 4.9 1.2 1 .8 1.5 2 1.5 3.7zm-4 1.8c.4-.4.6-.9.6-1.7 0-.8-.2-1.3-.6-1.6s-1.2-.4-2.2-.4h-2.5v4.3h2.4c1.2-.1 1.9-.3 2.3-.6zM319.2 44.4c-1.3 1.2-2.8 1.8-4.5 1.8s-3.1-.5-4.3-1.6c-1.1-1.1-1.7-2.5-1.7-4.3s.6-3.2 1.7-4.2 2.5-1.6 4-1.6c1.6 0 2.9.5 4 1.4 1.1.9 1.6 2.2 1.6 3.9v1.7h-8.2c.1.6.4 1.1 1 1.5.5.4 1.2.6 1.8.6 1.1 0 2-.4 2.7-1.1l1.9 1.9zm-3-6.7c-.4-.4-1-.5-1.6-.5-.6 0-1.2.2-1.7.6-.5.4-.8.9-.9 1.5h5c-.1-.7-.4-1.3-.8-1.6zM330.9 42.5c0 1.1-.4 2-1.2 2.7s-1.9 1-3.1 1c-.8 0-1.7-.2-2.6-.5s-1.7-.7-2.5-1.3l1.4-2c1.2.9 2.4 1.4 3.8 1.4.4 0 .7-.1 1-.2.2-.2.4-.4.4-.6 0-.3-.2-.5-.5-.7-.3-.2-.8-.4-1.4-.6s-1.1-.4-1.4-.5c-.3-.1-.7-.3-1.1-.6-.9-.5-1.3-1.3-1.3-2.4s.4-1.9 1.3-2.6 1.9-1 3.3-1 2.7.4 4 1.3l-1.2 2.1c-1-.7-2-1-2.9-1-1 0-1.5.3-1.5.8 0 .3.2.5.5.7.3.2.8.4 1.5.6.7.2 1.2.4 1.5.5.3.1.7.3 1.1.6.5.4.9 1.2.9 2.3zM343.1 44.4c-1.3 1.2-2.8 1.8-4.5 1.8s-3.1-.5-4.3-1.6c-1.1-1.1-1.7-2.5-1.7-4.3s.6-3.2 1.7-4.2 2.5-1.6 4-1.6c1.6 0 2.9.5 4 1.4 1.1.9 1.6 2.2 1.6 3.9v1.7h-8.2c.1.6.4 1.1 1 1.5.5.4 1.2.6 1.8.6 1.1 0 2-.4 2.7-1.1l1.9 1.9zm-3-6.7c-.4-.4-1-.5-1.6-.5-.6 0-1.2.2-1.7.6-.5.4-.8.9-.9 1.5h5c-.1-.7-.4-1.3-.8-1.6zM355.9 46h-3v-1.4c-.8 1-1.8 1.5-3 1.5s-2.2-.3-3-1c-.8-.7-1.2-1.6-1.2-2.8s.4-2 1.3-2.6c.8-.6 2-.9 3.4-.9h2.4v-.1c0-1.2-.6-1.8-1.9-1.8-.5 0-1.1.1-1.7.3-.6.2-1.1.5-1.5.8l-1.4-2c1.5-1.1 3.2-1.6 5.1-1.6 1.4 0 2.5.3 3.4 1 .9.7 1.3 1.8 1.3 3.3V46zm-3.2-4.3v-.5h-2c-1.3 0-1.9.4-1.9 1.2 0 .4.1.7.5.9.3.2.7.3 1.3.3s1.1-.2 1.5-.5c.4-.4.6-.8.6-1.4zM364.7 37.5c-.9 0-1.6.3-2.1 1s-.7 1.5-.7 2.6V46h-3.1V34.7h3.1v1.5c.4-.5.9-.9 1.5-1.2.6-.3 1.2-.5 1.9-.5v3h-.6zM372.8 43.4c1 0 2-.5 2.8-1.6l1.9 2.1c-1.5 1.5-3 2.3-4.7 2.3s-3.1-.5-4.3-1.6-1.8-2.5-1.8-4.2c0-1.7.6-3.1 1.8-4.2s2.6-1.6 4.2-1.6c.8 0 1.6.2 2.5.5.8.3 1.6.8 2.2 1.5l-1.6 2.1c-.4-.4-.8-.8-1.3-1-.5-.2-1-.4-1.6-.4-.8 0-1.5.3-2.1.8-.6.5-.9 1.3-.9 2.2s.3 1.7.9 2.2c.5.6 1.2.9 2 .9zM382.8 39.9V46h-3.1V30.4h3.1V36c1-1 2-1.4 3.2-1.4 1.2 0 2.2.4 3 1.3.8.8 1.2 2 1.2 3.4V46H387v-6.2c0-1.7-.6-2.6-1.9-2.6-.6 0-1.2.2-1.6.7-.5.5-.7 1.1-.7 2z"/></g></g></svg>